<svg width="12" height="10" viewBox="0 0 12 10" fill="none" xmlns="http://www.w3.org/2000/svg">
<path fill-rule="evenodd" clip-rule="evenodd" d="M2.52403 3.86049C1.76065 3.33149 1.30307 3.01336 1.15127 2.90624C0.874533 2.71877 0.613296 2.46093 0.36782 2.1328C0.12232 1.80469 -0.000488281 1.49992 -0.000488281 1.21868C-0.000488281 0.870495 0.092134 0.580314 0.277379 0.348161C0.462647 0.116054 0.727168 0 1.0709 0H10.9281C11.2181 0 11.4693 0.104866 11.6813 0.314714C11.8934 0.524516 11.9995 0.77677 11.9995 1.07145C11.9995 1.42409 11.8902 1.76116 11.6713 2.08247C11.4526 2.40391 11.1803 2.67852 10.8545 2.9061C9.17594 4.07132 8.13121 4.7968 7.72056 5.08245C7.67593 5.11376 7.58098 5.18174 7.43594 5.28674C7.2908 5.39173 7.17034 5.47656 7.07434 5.54127C6.97834 5.60594 6.86229 5.67843 6.72616 5.75886C6.5901 5.83905 6.46161 5.89949 6.34113 5.93946C6.22057 5.97973 6.10892 5.99972 6.00626 5.99972H5.99951H5.99278C5.89012 5.99972 5.77852 5.97976 5.65796 5.93946C5.53743 5.89949 5.40906 5.83912 5.27288 5.75886C5.13666 5.67853 5.02061 5.60596 4.92461 5.54127C4.82868 5.47656 4.70812 5.39173 4.56303 5.28674C4.41796 5.18183 4.32314 5.11376 4.2785 5.08245C3.87224 4.7968 3.28743 4.38949 2.52403 3.86049ZM7.99506 6.39287C8.75389 5.8437 9.86564 5.07355 11.3298 4.08257C11.5844 3.90851 11.8075 3.71419 11.9995 3.5V8.81681C11.9995 9.11166 11.8947 9.36368 11.6848 9.57357C11.475 9.78347 11.2227 9.88838 10.9281 9.88838H1.07096C0.776304 9.88838 0.524027 9.78347 0.314225 9.57357C0.104377 9.36375 -0.000488281 9.11164 -0.000488281 8.81681V3.5C0.195944 3.71871 0.421389 3.91304 0.675919 4.08257C2.29196 5.18073 3.40132 5.95094 4.00403 6.39287C4.25847 6.5803 4.46496 6.72661 4.6234 6.83145C4.78188 6.93636 4.99285 7.0435 5.2562 7.15282C5.51955 7.26231 5.76512 7.31689 5.99279 7.31689H5.99952H6.00635C6.23407 7.31689 6.4795 7.26231 6.74285 7.15282C7.00629 7.0435 7.21712 6.93636 7.37565 6.83145C7.53418 6.72661 7.7406 6.5803 7.99506 6.39287Z" fill="black"/>
</svg>
