<svg xmlns="http://www.w3.org/2000/svg" width="22" height="22" fill="none"><path d="M13.613 14.383c-.7-.39-2-1.233-3.447-2.67s-2.29-2.77-2.684-3.468L9.8 5.893 3.95 0 1.067 2.867C-.028 3.963-.31 5.63.36 7.017c1.026 2.115 2.92 5.307 6.1 8.503s6.38 5.09 8.49 6.12c.5.243 1.037.362 1.57.362.942 0 1.874-.37 2.572-1.07l2.87-2.883-5.97-5.987-2.394 2.32zm4.28 5.335c-.578.578-1.454.73-2.18.375-1.994-.97-5.005-2.76-8.028-5.788s-4.812-6.042-5.78-8.04c-.353-.728-.202-1.606.374-2.182L3.94 2.43l3.443 3.47L5.41 7.9l.238.536c.04.087.975 2.16 3.304 4.49s4.382 3.252 4.468 3.3l.528.232 2.037-1.975 3.566 3.577-1.66 1.668zM15.86 8.092L11.824 4.05 15.86.006l1.213 1.215-1.924 1.926h4.266a2.58 2.58 0 0 1 2.578 2.577L22 10.232l-1.715.002-.005-4.51c0-.475-.387-.86-.863-.86h-4.352l2 2.012-1.213 1.215z" fill="#0098d6"/></svg>