<svg xmlns="http://www.w3.org/2000/svg" width="12" height="17" fill="none"><path opacity=".8" fill-rule="evenodd" d="M1.71 4.154C1.71 1.863 3.635 0 6 0s4.29 1.863 4.29 4.154S8.365 8.308 6 8.308 1.71 6.445 1.71 4.154zm2.144 0C3.856 5.3 4.817 6.23 6 6.23s2.144-.93 2.144-2.077S7.182 2.077 6 2.077s-2.144.93-2.144 2.077zm6.315 4.04c.42-.406 1.097-.406 1.516 0s.418 1.063-.001 1.47a8.1 8.1 0 0 1-4.768 2.22l3.057 2.96c.42.406.42 1.062 0 1.468-.21.203-.484.304-.758.304s-.55-.102-.758-.304L6 13.93l-2.458 2.38c-.42.406-1.097.406-1.516 0s-.42-1.062 0-1.468l3.057-2.96a8.1 8.1 0 0 1-4.768-2.22c-.42-.407-.42-1.063 0-1.47s1.097-.406 1.516 0c2.3 2.226 6.04 2.226 8.34 0z" fill="#0098d6"/></svg>