<svg width="12" height="10" fill="none" xmlns="http://www.w3.org/2000/svg"><path fill-rule="evenodd" clip-rule="evenodd" d="M2.524 3.86l-1.373-.954a3.324 3.324 0 01-.783-.773C.122 1.805 0 1.5 0 1.219 0 .87.092.58.277.349.463.115.727 0 1.071 0h9.857c.29 0 .541.105.753.315.212.21.319.462.319.756 0 .353-.11.69-.329 1.011a3.182 3.182 0 01-.816.824C9.175 4.071 8.13 4.796 7.72 5.082l-.285.205c-.145.105-.266.19-.362.254a7.07 7.07 0 01-.348.218c-.136.08-.264.14-.385.18-.12.04-.232.06-.335.06h-.012a1.06 1.06 0 01-.335-.06 2.02 2.02 0 01-.385-.18 6.945 6.945 0 01-.348-.218c-.096-.064-.217-.15-.362-.254l-.284-.205c-.407-.285-.992-.693-1.755-1.222zm5.471 2.533c.759-.55 1.87-1.32 3.335-2.31.254-.174.477-.369.67-.583v5.317c0 .295-.105.547-.315.757a1.03 1.03 0 01-.757.314H1.071c-.295 0-.547-.105-.757-.314A1.031 1.031 0 010 8.817V3.5c.196.219.421.413.676.583C2.292 5.18 3.4 5.95 4.004 6.393c.254.187.461.334.62.438.158.105.369.212.632.322.264.11.51.164.737.164h.013c.228 0 .473-.055.737-.164.263-.11.474-.217.633-.322.158-.104.365-.25.62-.438z" fill="#000"/></svg>