<svg xmlns="http://www.w3.org/2000/svg" width="18" height="12" fill="none"><path opacity=".8" d="M15.492 7.043l1.763 1.928a5.64 5.64 0 01.632.99c.243.512.023 1.075-.4 1.105l-2.622-.001c-.676.06-1.216-.235-1.67-.738l-1.048-1.246a2.57 2.57 0 00-.472-.456c-.358-.253-.67-.175-.873.23-.208.413-.256.87-.276 1.33-.028.672-.215.848-.835.88-1.326.068-2.584-.15-3.752-.877-1.03-.64-1.83-1.546-2.525-2.57C2.06 5.622 1.023 3.43.09 1.177-.12.67.035.396.55.387L3.117.385c.348.006.578.222.712.58.463 1.238 1.03 2.415 1.74 3.506.19.29.382.58.657.786.304.226.536.15.68-.217.09-.234.13-.485.15-.735.068-.86.077-1.72-.042-2.578-.073-.535-.35-.882-.84-.983C5.922.692 5.96.59 6.08.435 6.29.167 6.5 0 6.885 0h2.964c.467.1.57.328.634.84l.002 3.58c-.005.198.09.784.418.915.262.093.435-.135.592-.315.7-.82 1.216-1.787 1.668-2.79l.54-1.356c.124-.34.32-.506.67-.5l2.852.003c.085 0 .17.001.252.017.48.09.612.314.464.824-.234.8-.69 1.468-1.134 2.138l-1.456 2.127c-.433.657-.4.99.14 1.56z" fill="#0098d6"/></svg>