<svg xmlns="http://www.w3.org/2000/svg" width="16" height="16" fill="none"><path opacity=".8" fill-rule="evenodd" d="M11.964 0H4.036A4.04 4.04 0 000 4.036v7.928A4.04 4.04 0 004.036 16h7.928A4.04 4.04 0 0016 11.964V4.036A4.04 4.04 0 0011.964 0zm2.295 11.964a2.3 2.3 0 01-2.295 2.295H4.036a2.3 2.3 0 01-2.295-2.295V4.036a2.3 2.3 0 012.295-2.295h7.928a2.3 2.3 0 012.295 2.295v7.928zm-2.006-7.232a.976.976 0 11.001-1.951.976.976 0 01-.001 1.951zM3.88 8c0-2.272 1.85-4.12 4.12-4.12S12.12 5.73 12.12 8 10.27 12.12 8 12.12 3.88 10.272 3.88 8zm1.74 0c0 1.312 1.068 2.38 2.38 2.38S10.38 9.312 10.38 8 9.312 5.62 8 5.62 5.62 6.688 5.62 8z" fill="#0098d6"/></svg>