<svg xmlns="http://www.w3.org/2000/svg" width="24" height="20" fill="none"><path fill-rule="evenodd" d="M7.078 5.653l-5.115-1.46c-.678-.194-.677-1.16 0-1.352L11.807.027a.703.703 0 01.386 0l9.844 2.812c.678.194.677 1.16 0 1.352l-2.303.658v5.697a.703.703 0 01-1.406 0V5.25l-1.406.402V9.14c0 .266-.15.5-.39.63l-3.11 1.555a3.84 3.84 0 00-.938.66c-.272.26-.7.26-.972 0a3.84 3.84 0 00-.938-.66L7.467 9.77a.707.707 0 01-.39-.63V5.653zm5.717 4.413l2.72-1.36v-2.65l-3.322.95a.703.703 0 01-.386 0l-3.322-.95v2.65l2.72 1.36a5.25 5.25 0 01.795.49 5.25 5.25 0 01.795-.49zm6.49-6.55L12 1.434l-7.284 2.08L12 5.597l7.284-2.08zm3.263 13.36h.75a.703.703 0 010 1.406H16.65c-1.43 0-2.552.317-3.33.943a2.11 2.11 0 01-2.639 0c-.78-.626-1.9-.943-3.33-.943H.703a.703.703 0 010-1.406h.75v-2.11c0-.388.315-.703.703-.703h7.03c1.15 0 2.17.554 2.813 1.41a3.514 3.514 0 012.813-1.41h7.03c.388 0 .703.315.703.703v2.11zm-19.688 0h4.5c1.615 0 2.94.356 3.948 1.057v-.354c0-1.163-.946-2.11-2.11-2.11H2.86v1.406zm9.844.703v.354c1.008-.7 2.333-1.057 3.948-1.057h4.5V15.47h-6.328c-1.163 0-2.11.946-2.11 2.11z" fill="#fff"/></svg>