<svg width="45" height="45" viewBox="0 0 45 45" fill="none" xmlns="http://www.w3.org/2000/svg">
<g opacity="0.8">
<path fill-rule="evenodd" clip-rule="evenodd" d="M20.9738 9.06221V13.6244H10.9369H0.900024V24.6152V35.606H8.28251H15.665V36.8088V38.0115H10.3148H4.96454V39.2558V40.5H16.9507H28.9369V39.315C28.9369 38.3433 28.9262 38.1194 28.8776 38.0708C28.8269 38.02 28.0521 38.0115 23.4859 38.0115H18.1535V36.868C18.1535 35.9323 18.1643 35.7137 18.2127 35.6653C18.2636 35.6143 19.3093 35.606 25.6367 35.606H33.0014V28.2235V20.841H38.1857H43.3701V12.6705V4.5H32.1719H20.9738V9.06221ZM40.8816 12.6705V18.3525H35.8807H30.8797L30.7203 18.5184C30.6326 18.6097 30.5389 18.6843 30.5121 18.6843C30.4852 18.6843 30.4109 18.7403 30.347 18.8088C30.2831 18.8772 30.2085 18.9332 30.1811 18.9332C30.1538 18.9332 30.0791 18.9892 30.0152 19.0576C29.9513 19.126 29.8767 19.182 29.8493 19.182C29.822 19.182 29.7473 19.238 29.6834 19.3065C29.6195 19.3749 29.5452 19.4309 29.5184 19.4309C29.4915 19.4309 29.3978 19.5055 29.3102 19.5968C29.2225 19.688 29.1288 19.7627 29.102 19.7627C29.0751 19.7627 29.0008 19.8187 28.9369 19.8871C28.873 19.9555 28.7987 20.0115 28.7718 20.0115C28.745 20.0115 28.6513 20.0862 28.5636 20.1774C28.4759 20.2687 28.3822 20.3433 28.3554 20.3433C28.3285 20.3433 28.2543 20.3993 28.1903 20.4677C28.1264 20.5362 28.0518 20.5922 28.0244 20.5922C27.9971 20.5922 27.9225 20.6482 27.8586 20.7166C27.7946 20.785 27.7204 20.841 27.6935 20.841C27.6666 20.841 27.573 20.9157 27.4853 21.0069C27.3976 21.0982 27.3039 21.1728 27.2771 21.1728C27.2502 21.1728 27.1759 21.2288 27.112 21.2972C27.0481 21.3657 26.9659 21.4217 26.9295 21.4217C26.8699 21.4217 26.8632 21.2656 26.8632 19.8871V18.3525H25.2042H23.5452V12.6705V6.98848H32.2134H40.8816V12.6705ZM27.7756 10.2235V11.4677H32.5037H37.2318V10.2235V8.97926H32.5037H27.7756V10.2235ZM27.7756 14.8687V16.1129H32.5037H37.2318V14.8687V13.6244H32.5037H27.7756V14.8687ZM20.9738 18.477V20.841H22.6742H24.3747V23.6613C24.3747 26.218 24.3809 26.4816 24.441 26.4816C24.4775 26.4816 24.5596 26.4256 24.6235 26.3571C24.6874 26.2887 24.7621 26.2327 24.7894 26.2327C24.8168 26.2327 24.8914 26.1767 24.9553 26.1083C25.0192 26.0399 25.0935 25.9839 25.1204 25.9839C25.1472 25.9839 25.2409 25.9092 25.3286 25.818C25.4163 25.7267 25.51 25.6521 25.5368 25.6521C25.5637 25.6521 25.638 25.5961 25.7019 25.5277C25.7658 25.4592 25.8404 25.4032 25.8678 25.4032C25.8951 25.4032 25.9698 25.3472 26.0337 25.2788C26.0976 25.2104 26.1719 25.1544 26.1987 25.1544C26.2256 25.1544 26.3193 25.0797 26.4069 24.9885C26.4946 24.8972 26.5883 24.8226 26.6151 24.8226C26.642 24.8226 26.7163 24.7666 26.7802 24.6982C26.8441 24.6297 26.9184 24.5737 26.9453 24.5737C26.9721 24.5737 27.0658 24.4991 27.1535 24.4078C27.2412 24.3166 27.3349 24.2419 27.3617 24.2419C27.3886 24.2419 27.4628 24.1859 27.5268 24.1175C27.5907 24.0491 27.6653 23.9931 27.6927 23.9931C27.72 23.9931 27.7946 23.9371 27.8586 23.8687C27.9225 23.8002 27.9967 23.7442 28.0236 23.7442C28.0505 23.7442 28.1441 23.6696 28.2318 23.5783C28.3195 23.4871 28.4132 23.4124 28.44 23.4124C28.4669 23.4124 28.5412 23.3565 28.6051 23.288C28.669 23.2196 28.7437 23.1636 28.771 23.1636C28.7983 23.1636 28.873 23.1076 28.9369 23.0392C29.0008 22.9707 29.0751 22.9147 29.102 22.9147C29.1288 22.9147 29.2225 22.8401 29.3102 22.7488C29.3978 22.6576 29.4915 22.583 29.5184 22.583C29.5452 22.583 29.6195 22.527 29.6834 22.4585C29.7473 22.3901 29.822 22.3341 29.8493 22.3341C29.8767 22.3341 29.9513 22.2781 30.0152 22.2097C30.0791 22.1412 30.1572 22.0853 30.1886 22.0853C30.22 22.0853 30.2727 22.0479 30.3056 22.0023C30.3384 21.9567 30.3985 21.9194 30.4391 21.9194C30.5095 21.9194 30.5129 22.1786 30.5129 27.5184V33.1175H25.7019H20.8908V32.6198C20.8908 32.3157 20.8747 32.1221 20.8493 32.1221C20.8265 32.1221 20.8079 32.0288 20.8079 31.9147C20.8079 31.8007 20.7892 31.7074 20.7664 31.7074C20.7436 31.7074 20.7249 31.6327 20.7249 31.5415C20.7249 31.4502 20.7062 31.3756 20.6834 31.3756C20.6606 31.3756 20.642 31.3009 20.642 31.2097C20.642 31.1184 20.6233 31.0438 20.6005 31.0438C20.5777 31.0438 20.559 31.0065 20.559 30.9608C20.559 30.9152 20.5403 30.8779 20.5175 30.8779C20.4947 30.8779 20.4761 30.8219 20.4761 30.7535C20.4761 30.685 20.4574 30.629 20.4346 30.629C20.4118 30.629 20.3931 30.5917 20.3931 30.5461C20.3931 30.5005 20.3744 30.4631 20.3516 30.4631C20.3288 30.4631 20.3102 30.4112 20.3102 30.3479C20.3102 30.2802 20.2759 30.2079 20.2272 30.1728C20.1816 30.1399 20.1443 30.0798 20.1443 30.0392C20.1443 29.9987 20.1256 29.9654 20.1028 29.9654C20.08 29.9654 20.0613 29.9281 20.0613 29.8825C20.0613 29.8369 20.0427 29.7995 20.0198 29.7995C19.997 29.7995 19.9784 29.7663 19.9784 29.7258C19.9784 29.6852 19.941 29.6251 19.8954 29.5922C19.8498 29.5593 19.8125 29.5033 19.8125 29.4677C19.8125 29.4322 19.7751 29.3762 19.7295 29.3433C19.6839 29.3104 19.6466 29.2582 19.6466 29.2272C19.6466 29.1962 19.5719 29.0992 19.4807 29.0115C19.3894 28.9238 19.3148 28.8317 19.3148 28.8067C19.3148 28.7475 18.7078 28.1406 18.6486 28.1406C18.6236 28.1406 18.5315 28.0659 18.4438 27.9747C18.3561 27.8834 18.2591 27.8088 18.2281 27.8088C18.1971 27.8088 18.1449 27.7714 18.112 27.7258C18.0791 27.6802 18.0231 27.6429 17.9876 27.6429C17.952 27.6429 17.896 27.6055 17.8632 27.5599C17.8303 27.5143 17.7702 27.477 17.7296 27.477C17.689 27.477 17.6558 27.4583 17.6558 27.4355C17.6558 27.4127 17.6185 27.394 17.5728 27.394C17.5272 27.394 17.4899 27.3753 17.4899 27.3525C17.4899 27.3297 17.4526 27.3111 17.4069 27.3111C17.3613 27.3111 17.324 27.2924 17.324 27.2696C17.324 27.2468 17.2867 27.2281 17.241 27.2281C17.1954 27.2281 17.1581 27.2094 17.1581 27.1866C17.1581 27.1638 17.1208 27.1452 17.0751 27.1452C17.0295 27.1452 16.9922 27.1265 16.9922 27.1037C16.9922 27.0809 16.9549 27.0622 16.9092 27.0622C16.8636 27.0622 16.8263 27.0435 16.8263 27.0207C16.8263 26.9979 16.7703 26.9793 16.7019 26.9793C16.6334 26.9793 16.5774 26.9606 16.5774 26.9378C16.5774 26.915 16.5215 26.8963 16.453 26.8963C16.3846 26.8963 16.3286 26.8776 16.3286 26.8548C16.3286 26.832 16.2726 26.8134 16.2042 26.8134C16.1357 26.8134 16.0797 26.7947 16.0797 26.7719C16.0797 26.7491 16.0051 26.7304 15.9138 26.7304C15.8226 26.7304 15.748 26.7118 15.748 26.6889C15.748 26.6659 15.6373 26.6475 15.4991 26.6475C15.3609 26.6475 15.2503 26.6291 15.2503 26.606C15.2503 26.5814 15.0982 26.5645 14.877 26.5645H14.5037V26.1261C14.5037 25.6479 14.5356 25.5691 14.7289 25.5691C14.7875 25.5691 14.8355 25.5505 14.8355 25.5277C14.8355 25.5048 14.8728 25.4862 14.9185 25.4862C14.9641 25.4862 15.0014 25.4675 15.0014 25.4447C15.0014 25.4219 15.0387 25.4032 15.0844 25.4032C15.13 25.4032 15.1673 25.3846 15.1673 25.3618C15.1673 25.3389 15.2046 25.3203 15.2503 25.3203C15.2959 25.3203 15.3332 25.3016 15.3332 25.2788C15.3332 25.256 15.3705 25.2373 15.4162 25.2373C15.4618 25.2373 15.4991 25.2187 15.4991 25.1959C15.4991 25.173 15.5323 25.1544 15.5729 25.1544C15.6135 25.1544 15.6736 25.1171 15.7065 25.0714C15.7394 25.0258 15.7903 24.9885 15.8197 24.9885C15.8895 24.9885 16.9092 23.9687 16.9092 23.899C16.9092 23.8696 16.9466 23.8186 16.9922 23.7857C17.0378 23.7528 17.0751 23.6927 17.0751 23.6521C17.0751 23.6116 17.0938 23.5783 17.1166 23.5783C17.1394 23.5783 17.1581 23.541 17.1581 23.4954C17.1581 23.4498 17.1768 23.4124 17.1996 23.4124C17.2224 23.4124 17.241 23.3751 17.241 23.3295C17.241 23.2839 17.2597 23.2465 17.2825 23.2465C17.3053 23.2465 17.324 23.2092 17.324 23.1636C17.324 23.118 17.3427 23.0806 17.3655 23.0806C17.3883 23.0806 17.4069 23.0247 17.4069 22.9562C17.4069 22.8878 17.4256 22.8318 17.4484 22.8318C17.4712 22.8318 17.4899 22.7758 17.4899 22.7074C17.4899 22.6389 17.5086 22.583 17.5314 22.583C17.5542 22.583 17.5728 22.527 17.5728 22.4585C17.5728 22.3901 17.5915 22.3341 17.6143 22.3341C17.6374 22.3341 17.6558 22.2235 17.6558 22.0853C17.6558 21.947 17.6742 21.8364 17.6973 21.8364C17.7226 21.8364 17.7387 21.6428 17.7387 21.3387C17.7387 21.0346 17.7226 20.841 17.6973 20.841C17.6742 20.841 17.6558 20.7304 17.6558 20.5922C17.6558 20.4539 17.6374 20.3433 17.6143 20.3433C17.5915 20.3433 17.5728 20.2687 17.5728 20.1774C17.5728 20.0862 17.5542 20.0115 17.5314 20.0115C17.5086 20.0115 17.4899 19.9555 17.4899 19.8871C17.4899 19.8187 17.4712 19.7627 17.4484 19.7627C17.4256 19.7627 17.4069 19.7067 17.4069 19.6382C17.4069 19.5698 17.3883 19.5138 17.3655 19.5138C17.3427 19.5138 17.324 19.4765 17.324 19.4309C17.324 19.3853 17.3053 19.3479 17.2825 19.3479C17.2597 19.3479 17.241 19.3147 17.241 19.2741C17.241 19.2335 17.2037 19.1734 17.1581 19.1406C17.1125 19.1077 17.0751 19.0476 17.0751 19.007C17.0751 18.9664 17.0565 18.9332 17.0337 18.9332C17.0109 18.9332 16.9922 18.9034 16.9922 18.8669C16.9922 18.8304 16.9362 18.7482 16.8678 18.6843C16.7993 18.6204 16.7433 18.5473 16.7433 18.522C16.7433 18.4572 16.0512 17.7719 15.9858 17.7719C15.9563 17.7719 15.9053 17.7346 15.8724 17.6889C15.8395 17.6433 15.7835 17.606 15.748 17.606C15.7124 17.606 15.6564 17.5687 15.6235 17.523C15.5906 17.4774 15.5305 17.4401 15.4899 17.4401C15.4494 17.4401 15.4162 17.4214 15.4162 17.3986C15.4162 17.3758 15.3788 17.3571 15.3332 17.3571C15.2876 17.3571 15.2503 17.3385 15.2503 17.3157C15.2503 17.2929 15.2129 17.2742 15.1673 17.2742C15.1217 17.2742 15.0844 17.2555 15.0844 17.2327C15.0844 17.2099 15.047 17.1912 15.0014 17.1912C14.9558 17.1912 14.9185 17.1726 14.9185 17.1498C14.9185 17.127 14.8625 17.1083 14.794 17.1083C14.7256 17.1083 14.6696 17.0896 14.6696 17.0668C14.6696 17.044 14.6136 17.0253 14.5452 17.0253C14.4768 17.0253 14.4208 17.0067 14.4208 16.9839C14.4208 16.9611 14.3461 16.9424 14.2549 16.9424C14.1636 16.9424 14.089 16.9237 14.089 16.9009C14.089 16.8746 13.771 16.8594 13.218 16.8594C12.665 16.8594 12.347 16.8746 12.347 16.9009C12.347 16.9237 12.2724 16.9424 12.1811 16.9424C12.0899 16.9424 12.0152 16.9611 12.0152 16.9839C12.0152 17.0067 11.9592 17.0253 11.8908 17.0253C11.8224 17.0253 11.7664 17.044 11.7664 17.0668C11.7664 17.0896 11.7104 17.1083 11.642 17.1083C11.5735 17.1083 11.5175 17.127 11.5175 17.1498C11.5175 17.1726 11.4802 17.1912 11.4346 17.1912C11.389 17.1912 11.3516 17.2099 11.3516 17.2327C11.3516 17.2555 11.3143 17.2742 11.2687 17.2742C11.2231 17.2742 11.1857 17.2929 11.1857 17.3157C11.1857 17.3385 11.1525 17.3571 11.112 17.3571C11.0714 17.3571 11.0113 17.3945 10.9784 17.4401C10.9455 17.4857 10.8854 17.523 10.8448 17.523C10.8042 17.523 10.771 17.5417 10.771 17.5645C10.771 17.5873 10.7415 17.606 10.7055 17.606C10.6695 17.606 10.5683 17.6806 10.4807 17.7719C10.393 17.8631 10.3007 17.9378 10.2755 17.9378C10.2158 17.9378 9.85855 18.2951 9.85855 18.3547C9.85855 18.3799 9.7839 18.4722 9.69265 18.5599C9.60141 18.6476 9.52675 18.7446 9.52675 18.7756C9.52675 18.8066 9.48943 18.8588 9.4438 18.8917C9.39818 18.9246 9.36085 18.9847 9.36085 19.0253C9.36085 19.0659 9.34219 19.0991 9.31938 19.0991C9.29657 19.0991 9.2779 19.1364 9.2779 19.182C9.2779 19.2276 9.25924 19.265 9.23643 19.265C9.21362 19.265 9.19496 19.3023 9.19496 19.3479C9.19496 19.3935 9.17629 19.4309 9.15348 19.4309C9.13067 19.4309 9.11201 19.4682 9.11201 19.5138C9.11201 19.5594 9.09334 19.5968 9.07053 19.5968C9.04772 19.5968 9.02906 19.6528 9.02906 19.7212C9.02906 19.7896 9.01039 19.8456 8.98758 19.8456C8.96477 19.8456 8.94611 19.9016 8.94611 19.97C8.94611 20.0385 8.92744 20.0945 8.90463 20.0945C8.88182 20.0945 8.86316 20.1691 8.86316 20.2604C8.86316 20.3516 8.84449 20.4263 8.82168 20.4263C8.79709 20.4263 8.78021 20.5784 8.78021 20.7995C8.78021 21.0207 8.76333 21.1728 8.73873 21.1728C8.71592 21.1728 8.69726 21.2475 8.69726 21.3387C8.69726 21.43 8.71592 21.5046 8.73873 21.5046C8.76291 21.5046 8.78021 21.6428 8.78021 21.8364C8.78021 22.03 8.7975 22.1682 8.82168 22.1682C8.84449 22.1682 8.86316 22.2429 8.86316 22.3341C8.86316 22.4253 8.88182 22.5 8.90463 22.5C8.92744 22.5 8.94611 22.5747 8.94611 22.6659C8.94611 22.7571 8.96477 22.8318 8.98758 22.8318C9.01039 22.8318 9.02906 22.8691 9.02906 22.9147C9.02906 22.9604 9.04772 22.9977 9.07053 22.9977C9.09334 22.9977 9.11201 23.0537 9.11201 23.1221C9.11201 23.1906 9.13067 23.2465 9.15348 23.2465C9.17629 23.2465 9.19496 23.2798 9.19496 23.3203C9.19496 23.3609 9.23228 23.421 9.2779 23.4539C9.32353 23.4868 9.36085 23.5469 9.36085 23.5875C9.36085 23.6281 9.37952 23.6613 9.40233 23.6613C9.42514 23.6613 9.4438 23.6911 9.4438 23.7276C9.4438 23.7641 9.49979 23.8462 9.56823 23.9101C9.63666 23.9741 9.69265 24.0471 9.69265 24.0725C9.69265 24.1372 10.4679 24.9055 10.5332 24.9055C10.5627 24.9055 10.6137 24.9429 10.6466 24.9885C10.6795 25.0341 10.7354 25.0714 10.771 25.0714C10.8065 25.0714 10.8625 25.1088 10.8954 25.1544C10.9283 25.2 10.9884 25.2373 11.029 25.2373C11.0696 25.2373 11.1028 25.256 11.1028 25.2788C11.1028 25.3016 11.1401 25.3203 11.1857 25.3203C11.2314 25.3203 11.2687 25.3389 11.2687 25.3618C11.2687 25.3846 11.306 25.4032 11.3516 25.4032C11.3973 25.4032 11.4346 25.4219 11.4346 25.4447C11.4346 25.4675 11.4906 25.4862 11.559 25.4862C11.6274 25.4862 11.6834 25.5048 11.6834 25.5277C11.6834 25.5505 11.7314 25.5691 11.7901 25.5691C11.9834 25.5691 12.0152 25.6479 12.0152 26.1261V26.5645H11.642C11.4208 26.5645 11.2687 26.5814 11.2687 26.606C11.2687 26.6291 11.1581 26.6475 11.0198 26.6475C10.8816 26.6475 10.771 26.6659 10.771 26.6889C10.771 26.7118 10.6777 26.7304 10.5636 26.7304C10.4496 26.7304 10.3562 26.7491 10.3562 26.7719C10.3562 26.7947 10.3003 26.8134 10.2318 26.8134C10.1634 26.8134 10.1074 26.832 10.1074 26.8548C10.1074 26.8776 10.0514 26.8963 9.98297 26.8963C9.91454 26.8963 9.85855 26.915 9.85855 26.9378C9.85855 26.9606 9.82122 26.9793 9.7756 26.9793C9.72998 26.9793 9.69265 26.9979 9.69265 27.0207C9.69265 27.0435 9.63666 27.0622 9.56823 27.0622C9.49979 27.0622 9.4438 27.0809 9.4438 27.1037C9.4438 27.1265 9.40648 27.1452 9.36085 27.1452C9.31523 27.1452 9.2779 27.1638 9.2779 27.1866C9.2779 27.2094 9.24058 27.2281 9.19496 27.2281C9.14933 27.2281 9.11201 27.2468 9.11201 27.2696C9.11201 27.2924 9.07468 27.3111 9.02906 27.3111C8.98343 27.3111 8.94611 27.3297 8.94611 27.3525C8.94611 27.3753 8.91289 27.394 8.87232 27.394C8.83172 27.394 8.77162 27.4313 8.73873 27.477C8.70584 27.5226 8.64985 27.5599 8.61431 27.5599C8.57877 27.5599 8.52278 27.5972 8.48989 27.6429C8.457 27.6885 8.40101 27.7258 8.36546 27.7258C8.32992 27.7258 8.27393 27.7631 8.24104 27.8088C8.20815 27.8544 8.15722 27.8917 8.12785 27.8917C8.05809 27.8917 6.87237 29.0774 6.87237 29.1472C6.87237 29.1765 6.83505 29.2275 6.78943 29.2604C6.7438 29.2933 6.70648 29.3492 6.70648 29.3848C6.70648 29.4203 6.66915 29.4763 6.62353 29.5092C6.5779 29.5421 6.54058 29.5981 6.54058 29.6336C6.54058 29.6692 6.50325 29.7252 6.45763 29.7581C6.41201 29.791 6.37468 29.8511 6.37468 29.8917C6.37468 29.9322 6.35602 29.9654 6.3332 29.9654C6.31039 29.9654 6.29173 30.0028 6.29173 30.0484C6.29173 30.094 6.27307 30.1313 6.25026 30.1313C6.22744 30.1313 6.20878 30.1687 6.20878 30.2143C6.20878 30.2599 6.19012 30.2972 6.16731 30.2972C6.14449 30.2972 6.12583 30.3346 6.12583 30.3802C6.12583 30.4258 6.10717 30.4631 6.08436 30.4631C6.06155 30.4631 6.04288 30.5191 6.04288 30.5876C6.04288 30.656 6.02422 30.712 6.00141 30.712C5.9786 30.712 5.95993 30.7493 5.95993 30.7949C5.95993 30.8406 5.94127 30.8779 5.91846 30.8779C5.89565 30.8779 5.87698 30.9339 5.87698 31.0023C5.87698 31.0707 5.85832 31.1267 5.83551 31.1267C5.8127 31.1267 5.79403 31.2014 5.79403 31.2926C5.79403 31.3839 5.77537 31.4585 5.75256 31.4585C5.72975 31.4585 5.71108 31.5332 5.71108 31.6244C5.71108 31.7157 5.69242 31.7903 5.66961 31.7903C5.64593 31.7903 5.62814 31.9147 5.62814 32.0806C5.62814 32.2465 5.61034 32.371 5.58666 32.371C5.56207 32.371 5.54519 32.5231 5.54519 32.7442V33.1175H4.46684H3.3885V24.6152V16.1129H12.1811H20.9738V18.477ZM13.7572 19.3894C13.7572 19.4122 13.8132 19.4309 13.8816 19.4309C13.95 19.4309 14.006 19.4495 14.006 19.4724C14.006 19.4952 14.0433 19.5138 14.089 19.5138C14.1346 19.5138 14.1719 19.5325 14.1719 19.5553C14.1719 19.5781 14.2017 19.5968 14.2382 19.5968C14.2747 19.5968 14.3568 19.6528 14.4208 19.7212C14.4847 19.7896 14.5668 19.8456 14.6033 19.8456C14.6398 19.8456 14.6696 19.8754 14.6696 19.9119C14.6696 19.9484 14.7256 20.0306 14.794 20.0945C14.8625 20.1584 14.9185 20.2405 14.9185 20.277C14.9185 20.3135 14.9371 20.3433 14.9599 20.3433C14.9827 20.3433 15.0014 20.3806 15.0014 20.4263C15.0014 20.4719 15.0201 20.5092 15.0429 20.5092C15.0657 20.5092 15.0844 20.5465 15.0844 20.5922C15.0844 20.6378 15.103 20.6751 15.1258 20.6751C15.1486 20.6751 15.1673 20.7498 15.1673 20.841C15.1673 20.9323 15.186 21.0069 15.2088 21.0069C15.2325 21.0069 15.2503 21.1313 15.2503 21.2972C15.2503 21.4631 15.2325 21.5876 15.2088 21.5876C15.186 21.5876 15.1673 21.6622 15.1673 21.7535C15.1673 21.8447 15.1486 21.9194 15.1258 21.9194C15.103 21.9194 15.0844 21.9753 15.0844 22.0438C15.0844 22.1122 15.0657 22.1682 15.0429 22.1682C15.0201 22.1682 15.0014 22.2014 15.0014 22.242C15.0014 22.2826 14.9641 22.3427 14.9185 22.3756C14.8728 22.4085 14.8355 22.4597 14.8355 22.4895C14.8355 22.56 14.4807 22.9147 14.4103 22.9147C14.3805 22.9147 14.3292 22.9521 14.2963 22.9977C14.2634 23.0433 14.2034 23.0806 14.1627 23.0806C14.1222 23.0806 14.089 23.0993 14.089 23.1221C14.089 23.1449 14.0516 23.1636 14.006 23.1636C13.9604 23.1636 13.9231 23.1823 13.9231 23.2051C13.9231 23.2279 13.8484 23.2465 13.7572 23.2465C13.6659 23.2465 13.5913 23.2652 13.5913 23.288C13.5913 23.3126 13.4392 23.3295 13.218 23.3295C12.9968 23.3295 12.8447 23.3126 12.8447 23.288C12.8447 23.2652 12.7887 23.2465 12.7203 23.2465C12.6519 23.2465 12.5959 23.2279 12.5959 23.2051C12.5959 23.1823 12.5399 23.1636 12.4715 23.1636C12.403 23.1636 12.347 23.1449 12.347 23.1221C12.347 23.0993 12.3138 23.0806 12.2732 23.0806C12.2326 23.0806 12.1725 23.0433 12.1397 22.9977C12.1068 22.9521 12.0554 22.9147 12.0254 22.9147C11.9547 22.9147 11.6834 22.6435 11.6834 22.5727C11.6834 22.5428 11.6461 22.4914 11.6005 22.4585C11.5549 22.4256 11.5175 22.3655 11.5175 22.3249C11.5175 22.2844 11.4989 22.2512 11.4761 22.2512C11.4533 22.2512 11.4346 22.2138 11.4346 22.1682C11.4346 22.1226 11.4159 22.0853 11.3931 22.0853C11.3703 22.0853 11.3516 22.0479 11.3516 22.0023C11.3516 21.9567 11.333 21.9194 11.3102 21.9194C11.2845 21.9194 11.2687 21.6982 11.2687 21.3387C11.2687 20.9792 11.2845 20.7581 11.3102 20.7581C11.333 20.7581 11.3516 20.7021 11.3516 20.6336C11.3516 20.5652 11.3703 20.5092 11.3931 20.5092C11.4159 20.5092 11.4346 20.4719 11.4346 20.4263C11.4346 20.3806 11.4533 20.3433 11.4761 20.3433C11.4989 20.3433 11.5175 20.315 11.5175 20.2803C11.5175 20.2037 12.0335 19.6797 12.109 19.6797C12.1386 19.6797 12.1897 19.6424 12.2226 19.5968C12.2555 19.5512 12.3156 19.5138 12.3562 19.5138C12.3968 19.5138 12.43 19.4952 12.43 19.4724C12.43 19.4495 12.486 19.4309 12.5544 19.4309C12.6228 19.4309 12.6788 19.4122 12.6788 19.3894C12.6788 19.3639 12.8862 19.3479 13.218 19.3479C13.5498 19.3479 13.7572 19.3639 13.7572 19.3894ZM12.0152 31.0853V33.1175H10.0244H8.03367V32.8272C8.03367 32.6613 8.05146 32.5369 8.07514 32.5369C8.09795 32.5369 8.11661 32.4435 8.11661 32.3295C8.11661 32.2154 8.13528 32.1221 8.15809 32.1221C8.1809 32.1221 8.19956 32.0661 8.19956 31.9977C8.19956 31.9293 8.21823 31.8733 8.24104 31.8733C8.26385 31.8733 8.28251 31.8173 8.28251 31.7488C8.28251 31.6804 8.30118 31.6244 8.32399 31.6244C8.3468 31.6244 8.36546 31.5684 8.36546 31.5C8.36546 31.4316 8.38413 31.3756 8.40694 31.3756C8.42975 31.3756 8.44841 31.3424 8.44841 31.3018C8.44841 31.2612 8.48574 31.2011 8.53136 31.1682C8.57698 31.1353 8.61431 31.0752 8.61431 31.0346C8.61431 30.9941 8.63297 30.9608 8.65579 30.9608C8.6786 30.9608 8.69726 30.931 8.69726 30.8945C8.69726 30.8581 8.75325 30.7759 8.82168 30.712C8.89012 30.6481 8.94611 30.5749 8.94611 30.5494C8.94611 30.489 9.46968 29.9654 9.53007 29.9654C9.55558 29.9654 9.62874 29.9094 9.69265 29.841C9.75656 29.7726 9.83462 29.7166 9.86602 29.7166C9.89745 29.7166 9.95008 29.6793 9.98297 29.6336C10.0159 29.588 10.076 29.5507 10.1166 29.5507C10.1571 29.5507 10.1903 29.532 10.1903 29.5092C10.1903 29.4864 10.2277 29.4677 10.2733 29.4677C10.3189 29.4677 10.3562 29.4491 10.3562 29.4263C10.3562 29.4035 10.4122 29.3848 10.4807 29.3848C10.5491 29.3848 10.6051 29.3661 10.6051 29.3433C10.6051 29.3205 10.6424 29.3018 10.688 29.3018C10.7337 29.3018 10.771 29.2832 10.771 29.2604C10.771 29.2376 10.8456 29.2189 10.9369 29.2189C11.0281 29.2189 11.1028 29.2002 11.1028 29.1774C11.1028 29.1546 11.1774 29.1359 11.2687 29.1359C11.3599 29.1359 11.4346 29.1173 11.4346 29.0945C11.4346 29.0708 11.559 29.053 11.7249 29.053H12.0152V31.0853ZM15.0014 29.0945C15.0014 29.1173 15.0947 29.1359 15.2088 29.1359C15.3228 29.1359 15.4162 29.1546 15.4162 29.1774C15.4162 29.2002 15.4721 29.2189 15.5406 29.2189C15.609 29.2189 15.665 29.2376 15.665 29.2604C15.665 29.2832 15.721 29.3018 15.7894 29.3018C15.8579 29.3018 15.9138 29.3205 15.9138 29.3433C15.9138 29.3661 15.9512 29.3848 15.9968 29.3848C16.0424 29.3848 16.0797 29.4035 16.0797 29.4263C16.0797 29.4491 16.1171 29.4677 16.1627 29.4677C16.2083 29.4677 16.2456 29.4864 16.2456 29.5092C16.2456 29.532 16.283 29.5507 16.3286 29.5507C16.3742 29.5507 16.4115 29.5694 16.4115 29.5922C16.4115 29.615 16.4414 29.6336 16.4779 29.6336C16.5143 29.6336 16.5965 29.6896 16.6604 29.7581C16.7243 29.8265 16.7974 29.8825 16.8228 29.8825C16.883 29.8825 17.5728 30.5723 17.5728 30.6326C17.5728 30.6579 17.6288 30.731 17.6973 30.7949C17.7657 30.8588 17.8217 30.941 17.8217 30.9775C17.8217 31.014 17.8403 31.0438 17.8632 31.0438C17.886 31.0438 17.9046 31.0811 17.9046 31.1267C17.9046 31.1723 17.9233 31.2097 17.9461 31.2097C17.9689 31.2097 17.9876 31.247 17.9876 31.2926C17.9876 31.3382 18.0062 31.3756 18.0291 31.3756C18.0519 31.3756 18.0705 31.4129 18.0705 31.4585C18.0705 31.5041 18.0892 31.5415 18.112 31.5415C18.1348 31.5415 18.1535 31.5975 18.1535 31.6659C18.1535 31.7343 18.1721 31.7903 18.195 31.7903C18.2178 31.7903 18.2364 31.8463 18.2364 31.9147C18.2364 31.9832 18.2551 32.0392 18.2779 32.0392C18.3007 32.0392 18.3194 32.1138 18.3194 32.2051C18.3194 32.2963 18.338 32.371 18.3609 32.371C18.3854 32.371 18.4023 32.5231 18.4023 32.7442V33.1175H16.453H14.5037V31.0853V29.053H14.7526C14.8908 29.053 15.0014 29.0714 15.0014 29.0945Z" fill="#0098D6"/>
</g>
</svg>
