<svg width="45" height="45" viewBox="0 0 45 45" fill="none" xmlns="http://www.w3.org/2000/svg">
<path fill-rule="evenodd" clip-rule="evenodd" d="M4.5 4.5V31.5448H25.4017C25.5287 31.7136 25.6647 31.8751 25.808 32.0299V40.5L30.3155 38.2463L34.823 40.5V32.0299C34.9076 31.9386 34.9896 31.8449 35.0687 31.7488C35.1237 31.682 35.1773 31.614 35.2294 31.5448H39.7402V4.5H4.5ZM25.4017 24.1689H16.6696C16.1795 21.7642 14.2806 19.8653 11.8758 19.3752V16.6696C14.2805 16.1795 16.1794 14.2805 16.6696 11.8758H27.5706C28.0608 14.2805 29.9597 16.1795 32.3644 16.6696V19.3755C30.7846 19.6975 29.3854 20.6329 28.4803 21.9904C27.2393 22.3794 26.1667 23.1522 25.4017 24.1689ZM32.3643 36.5218L30.3155 35.4973L28.2667 36.5218V33.6509C28.908 33.8783 29.5973 34.0034 30.3155 34.0034C31.0337 34.0034 31.7231 33.8785 32.3643 33.6509V36.5218ZM30.3155 31.5448C28.282 31.5448 26.6276 29.8905 26.6276 27.8568C26.6276 25.8233 28.2819 24.1689 30.3155 24.1689C32.349 24.1689 34.0035 25.8232 34.0035 27.8568C34.0034 29.8905 32.349 31.5448 30.3155 31.5448ZM37.2816 29.0862H36.3384C36.4194 28.6888 36.4621 28.2778 36.4621 27.8569C36.4621 25.1137 34.6555 22.7852 32.1699 21.9968C32.6136 21.8112 33.096 21.7103 33.5937 21.7103H34.823V14.3345H33.5937C31.5602 14.3345 29.9057 12.6801 29.9057 10.6465V9.41726H14.3345V10.6466C14.3345 12.6801 12.6801 14.3345 10.6465 14.3345H9.41726V21.7104H10.6466C12.6801 21.7104 14.3345 23.3647 14.3345 25.3984V26.6277H24.2927C24.2117 27.025 24.169 27.4361 24.169 27.857C24.169 28.2779 24.2117 28.689 24.2927 29.0863H6.95863V6.95863H37.2816V29.0862ZM25.3974 14.3345H18.8411V16.7932H25.3974V14.3345ZM18.022 19.2518H26.2174V21.7104H18.022V19.2518Z" fill="#0098D6"/>
</svg>
