<svg width="75" height="80" viewBox="0 0 75 80" fill="none" xmlns="http://www.w3.org/2000/svg">
<path d="M57.9261 41.3093C58.1966 43.0573 58.9982 44.6725 60.2667 45.9478C61.8475 47.5371 63.9467 48.4111 66.1811 48.4111C68.4154 48.4111 70.5146 47.5371 72.0954 45.9478C73.6762 44.3585 74.5454 42.248 74.5454 40.0016C74.5454 37.7552 73.6762 35.6448 72.0954 34.0554C70.5146 32.4661 68.4154 31.5922 66.1811 31.5922C63.9467 31.5922 61.8475 32.4661 60.2667 34.0554C59.0208 35.3081 58.2256 36.8877 57.939 38.6H48.0453C47.7781 35.9814 46.764 33.5246 45.1059 31.4853L56.0427 20.4896C58.0517 22.0918 60.5179 22.9658 63.1193 22.9658C66.1714 22.9658 69.04 21.7714 71.1971 19.6027C73.3542 17.4339 74.5422 14.5499 74.5422 11.4845C74.5422 8.41594 73.3542 5.53186 71.1971 3.36314C69.04 1.19442 66.1714 0 63.1225 0C60.0736 0 57.205 1.19442 55.0446 3.36314C50.9204 7.51285 50.6242 14.0643 54.1432 18.5669L43.2031 29.5659C40.8142 27.5913 37.8426 26.5167 34.71 26.5167C31.1298 26.5167 27.7622 27.9183 25.2284 30.4657C22.9683 32.738 21.6901 35.6253 21.3842 38.5968H11.0366C10.7919 37.629 10.2961 36.7356 9.57494 36.0105C8.51571 34.9456 7.10555 34.3597 5.60846 34.3597C4.11136 34.3597 2.7012 34.9456 1.64197 36.0105C0.582738 37.0755 0 38.4932 0 39.9984C0 41.5068 0.582738 42.9213 1.64197 43.9862C2.7012 45.0512 4.11136 45.6371 5.60846 45.6371C7.10555 45.6371 8.51571 45.0512 9.57494 43.9862C10.3219 43.2385 10.8241 42.3128 11.0624 41.3061H21.3746C21.6643 44.3099 22.9489 47.2329 25.2316 49.5311C27.4434 51.7548 30.2927 53.1046 33.3642 53.4121V60.1481C31.6449 60.4265 30.0545 61.2292 28.7989 62.4948C27.2181 64.0842 26.3488 66.1946 26.3488 68.441C26.3488 70.6874 27.2181 72.7979 28.7989 74.3872C30.3797 75.9765 32.4788 76.8505 34.7132 76.8505C36.9475 76.8505 39.0467 75.9765 40.6275 74.3872C42.2083 72.7979 43.0776 70.6874 43.0776 68.441C43.0776 66.1946 42.2083 64.0842 40.6275 62.4948C39.3719 61.2325 37.7814 60.4297 36.0622 60.1513V53.4153C38.7151 53.1499 41.1974 52.1076 43.2514 50.3985L64.156 71.4157C63.6183 72.2929 63.3253 73.3029 63.3253 74.3613C63.3253 75.8697 63.9081 77.2842 64.9673 78.3492C66.0265 79.4141 67.4367 80 68.9338 80C70.4341 80 71.841 79.4141 72.9003 78.3492C73.9595 77.2842 74.5454 75.8665 74.5454 74.3613C74.5454 72.8562 73.9627 71.4384 72.9035 70.3735C71.8442 69.3085 70.4341 68.7226 68.937 68.7226C67.9132 68.7226 66.9344 69.0042 66.078 69.5157L45.1477 48.4726C46.8026 46.4172 47.8103 43.9474 48.0614 41.3126H57.9261V41.3093ZM63.0549 36.8586C63.8887 36.0202 64.9995 35.5574 66.1778 35.5574C67.3594 35.5574 68.4669 36.0202 69.3008 36.8586C70.1347 37.6969 70.5951 38.8137 70.5951 40.0016C70.5951 41.1896 70.1347 42.3031 69.3008 43.1414C68.4669 43.9798 67.3562 44.4426 66.1778 44.4426C64.9963 44.4426 63.8887 43.9798 63.0549 43.1414C62.221 42.3031 61.7606 41.1863 61.7606 40.0016C61.7606 38.8137 62.221 37.6969 63.0549 36.8586ZM7.70438 42.1088C7.14418 42.6721 6.40046 42.9828 5.60846 42.9828C4.81645 42.9828 4.07273 42.6721 3.51253 42.1088C2.95233 41.5456 2.64325 40.7979 2.64325 40.0016C2.64325 39.2053 2.95233 38.4576 3.51253 37.8944C4.07273 37.3312 4.81645 37.0204 5.60846 37.0204C6.40046 37.0204 7.14418 37.3312 7.70438 37.8944C8.26458 38.4576 8.57366 39.2053 8.57366 40.0016C8.57044 40.7947 8.26458 41.5456 7.70438 42.1088ZM58.8534 7.19239C59.9931 6.04653 61.5095 5.41534 63.1193 5.41534C64.7323 5.41534 66.2454 6.04653 67.3852 7.19239C68.5249 8.33826 69.1527 9.86284 69.1527 11.4845C69.1527 13.1062 68.5249 14.6276 67.3852 15.7734C66.2454 16.9193 64.729 17.5505 63.1193 17.5505C61.5063 17.5505 59.9931 16.9193 58.8534 15.7734C56.4999 13.4072 56.4999 9.55857 58.8534 7.19239ZM29.7003 34.9618C31.0397 33.6152 32.8169 32.8772 34.71 32.8772C36.6031 32.8772 38.3802 33.6185 39.7196 34.9618C41.0589 36.3083 41.7962 38.0951 41.7962 39.9984C41.7962 41.9017 41.0589 43.6885 39.7196 45.035C38.3802 46.3816 36.6031 47.1228 34.71 47.1228C32.8169 47.1228 31.0397 46.3816 29.7003 45.0382C26.938 42.261 26.938 37.739 29.7003 34.9618ZM39.1304 68.441C39.1304 69.629 38.67 70.7425 37.8361 71.5808C37.0023 72.4192 35.8915 72.8821 34.7132 72.8821C33.5316 72.8821 32.4241 72.4192 31.587 71.5808C30.7531 70.7425 30.2927 69.6257 30.2927 68.441C30.2927 67.2563 30.7531 66.1396 31.587 65.298C32.4209 64.4596 33.5316 63.9968 34.7132 63.9968C35.8948 63.9968 37.0023 64.4596 37.8361 65.298C38.67 66.1364 39.1304 67.2531 39.1304 68.441ZM71.0297 72.2509C71.5899 72.8141 71.899 73.5618 71.899 74.3581C71.899 75.1544 71.5899 75.9021 71.0297 76.4653C70.4695 77.0285 69.7258 77.3393 68.9338 77.3393C68.1418 77.3393 67.398 77.0285 66.8378 76.4653C66.2776 75.9021 65.9686 75.1544 65.9686 74.3581C65.9686 73.5618 66.2776 72.8141 66.8378 72.2509C67.398 71.6876 68.1418 71.3769 68.9338 71.3769C69.7258 71.3801 70.4695 71.6876 71.0297 72.2509Z" fill="url(#paint0_linear)"/>
<defs>
<linearGradient id="paint0_linear" x1="24.5876" y1="70.262" x2="80.8625" y2="12.8324" gradientUnits="userSpaceOnUse">
<stop stop-color="#009EE3"/>
<stop offset="0.1453" stop-color="#0098D6"/>
<stop offset="0.3155" stop-color="#7E88C1"/>
<stop offset="0.4803" stop-color="#AA6EAA"/>
<stop offset="0.6351" stop-color="#C24F96"/>
<stop offset="0.7777" stop-color="#D03187"/>
<stop offset="0.9038" stop-color="#D8127F"/>
<stop offset="1" stop-color="#DA007C"/>
</linearGradient>
</defs>
</svg>
