<svg width="45" height="45" viewBox="0 0 45 45" fill="none" xmlns="http://www.w3.org/2000/svg">
<path d="M30.0484 22.4999L40.5 12.0483L32.9516 4.5L22.4999 14.9516L14.3459 6.79746L6.04266 6.04252L6.79753 14.3459L14.9516 22.4999L4.5 32.9515L12.0484 40.4999L22.5 30.0483L32.9515 40.4999L40.5 32.9515L30.0484 22.4999ZM14.371 10.3062L20.7581 16.6934L19.5967 17.8547L13.2096 11.4675L14.371 10.3062ZM8.76368 8.76354L12.1243 9.06912L9.06912 12.1243L8.76368 8.76354ZM10.3063 14.3708L11.4677 13.2095L17.8548 19.5967L16.6935 20.7579L10.3063 14.3708ZM12.0484 37.016L7.98384 32.9515L12.629 28.3063L14.0807 29.7581L15.8226 28.0162L14.3709 26.5644L16.1128 24.8225L17.5646 26.2742L19.3065 24.5323L17.8548 23.0806L19.5968 21.3386L21.0485 22.7903L22.7905 21.0484L21.3387 19.5967L23.0806 17.8547L24.5324 19.3064L26.2743 17.5645L24.8226 16.1127L26.5646 14.3708L28.0162 15.8226L29.7581 14.0806L28.3065 12.6289L32.9516 7.98377L37.0162 12.0483L12.0484 37.016ZM32.9516 37.016L24.242 28.3063L25.4032 27.1451L34.1129 35.8547L32.9516 37.016ZM27.1451 25.4032L28.3065 24.2418L37.0161 32.9515L35.8547 34.113L27.1451 25.4032Z" fill="#0098D6"/>
</svg>
