<svg width="165" height="24" viewBox="0 0 165 24" fill="none" xmlns="http://www.w3.org/2000/svg">
<path d="M5.82152 23.9962H0V0.0300194H5.82152V9.29831H7.56656C11.5649 9.29831 12.6417 7.07692 14.9341 0.20638L14.9945 0.0300194H21.1643L21.0364 0.397749C18.5237 7.59475 17.4717 10.6191 13.0149 11.5009C17.7169 12.379 18.7725 15.2983 21.7827 23.6248L21.9178 23.9925H15.5596L15.4992 23.8199C12.5955 15.531 11.8314 13.7749 7.57012 13.7749H5.82152V23.9962ZM29.4915 5.47842C28.9157 11.2908 28.3435 14.4165 27.1849 16.7692C26.1613 18.8443 24.761 19.0094 22.9875 19.2796L22.753 19.3171L24.3274 23.9887C24.3274 23.9887 25.5536 23.9887 26.0298 23.9887C29.4701 23.9887 31.0908 22.2627 32.6723 18.5629C33.9376 15.6961 34.4778 11.7861 35.153 6.15009C35.2383 5.45591 35.5866 4.53283 37.584 4.53283H40.8964V23.9887H46.7499V0.0300194H35.9669C32.0859 0.0300194 29.8469 1.9137 29.4915 5.47842ZM66.7627 1.71857L75.2107 23.9925H69.1901L67.0399 18.0863H57.0068L54.8567 23.9925H48.8681L57.3232 1.69231C57.5968 0.679175 58.4178 0.0300194 59.452 0.0300194H64.6232C65.6467 0.0300194 66.4855 0.694185 66.7627 1.71857ZM62.9634 6.98687C62.7928 6.51782 62.4943 5.65478 62.3379 4.84803H61.7408C61.5773 5.56848 61.3428 6.34146 61.0869 6.99437L58.7945 13.272H65.2593L62.9634 6.98687ZM94.9711 18.4503C92.6717 18.7017 90.5748 18.7467 86.7435 18.7467C82.3649 18.7467 81.1672 17.2983 81.1672 12.0038C81.1672 6.71294 82.3649 5.26079 86.7435 5.26079C90.0737 5.26079 91.7903 5.29081 94.3954 5.39212L94.6228 5.39963L95.1808 0.844278L94.9569 0.795498C92.5544 0.25516 90.7169 0 86.7435 0C78.2103 0 75.0365 3.25328 75.0365 12C75.0365 20.7467 78.2103 24 86.7435 24C90.6139 24 92.9951 23.7411 95.5256 23.0394L95.7353 22.9831L95.2128 18.424L94.9711 18.4503ZM97.3737 4.92683H105.907V23.9925H111.76V4.92683H120.294V0.0300194H97.3737V4.92683ZM130.256 19.0281C128.61 19.0281 128.386 18.349 128.386 17.6811V13.8837H139.816V9.34709H128.386V6.38649C128.386 5.77486 128.599 5.07317 130.256 5.07317H141.327L141.572 0.46154L141.334 0.439025C137.556 0.067543 132.815 0.0675423 128.635 0.0675423C124.946 0.0675423 122.565 2.06004 122.565 5.14071V18.9231C122.565 22.0075 124.949 23.9962 128.635 23.9962C132.815 23.9962 137.552 23.9962 141.334 23.6248L141.572 23.6023L141.327 19.0244H130.256V19.0281ZM165 7.82739C165 13.6998 162.729 15.5872 155.656 15.5872C153.794 15.5872 151.935 15.4747 150.268 15.2608V23.9925H144.415V0.420264L144.642 0.397749C147.926 0.0975615 150.197 0.0675423 154.974 0.0675423C162.658 0.0712947 165 1.88368 165 7.82739ZM150.268 10.9193H154.846C158.237 10.9193 159.115 10.2852 159.115 7.82739C159.115 5.36961 158.237 4.73546 154.846 4.73546L150.265 4.76548V10.9193H150.268Z" fill="black"/>
</svg>
